<?xml version="1.0" encoding="utf-8"?>
<!-- Generator: Adobe Illustrator 26.2.0, SVG Export Plug-In . SVG Version: 6.00 Build 0)  -->
<svg version="1.1" id="livetype" xmlns="http://www.w3.org/2000/svg" xmlns:xlink="http://www.w3.org/1999/xlink" x="0px" y="0px"
	 viewBox="0 0 109.5 30.4" style="enable-background:new 0 0 109.5 30.4;" xml:space="preserve">
<style type="text/css">
	.st0{fill:#7000DD;}
	.st1{fill:#00D100;}
</style>
<g>
	<polygon class="st0" points="35.5,5.7 29.9,19.1 24.3,5.7 20.2,5.7 27.9,23.5 31.8,23.5 39.5,5.7 	"/>
	<path class="st0" d="M87.8,7.8c-1.6-1.7-3.8-2.5-6.5-2.5c-2.4,0-4.5,0.9-6.2,2.7s-2.6,4-2.6,6.7c0,2.8,0.9,5,2.6,6.8
		s3.8,2.6,6.2,2.6c2.7,0,4.8-0.8,6.5-2.5v2h3.7V5.7h-3.7V7.8z M86,19c-1.2,1.1-2.5,1.7-4.1,1.7c-1.7,0-3.1-0.6-4.2-1.7
		S76,16.4,76,14.6s0.6-3.3,1.7-4.4s2.5-1.7,4.2-1.7c1.6,0,2.9,0.6,4.1,1.7s1.8,2.6,1.8,4.4S87.2,17.9,86,19z"/>
	<path class="st0" d="M107.5,7.3c-1.3-1.4-3-2.1-5.2-2.1c-2.6,0-4.7,0.9-6.2,2.7V0h-3.7v23.5h3.7v-8.2c0-2.2,0.5-3.8,1.4-5
		c0.9-1.1,2.2-1.7,3.9-1.7c1.3,0,2.3,0.4,3.1,1.3c0.8,0.9,1.2,2.1,1.2,3.5v10h3.8V12.8C109.5,10.5,108.8,8.7,107.5,7.3z"/>
	<path class="st0" d="M68,7.5c-1.4-1.5-3.5-2.2-6.1-2.2c-2.3,0-4.4,0.8-6.1,2.5c-0.6,0.5-1,1.1-1.4,1.7C54,8.8,53.5,8.3,53,7.8
		c-1.7-1.7-3.8-2.5-6.2-2.5c-2.6,0-4.8,0.9-6.6,2.6c-1.8,1.8-2.7,4-2.7,6.8s0.9,5,2.7,6.7s3.9,2.6,6.4,2.6l0,0h3.2v-3.2h-3.2
		c-1.4,0-2.5-0.5-3.6-1.4c-1-1-1.6-2.2-1.8-3.8h12c0.3,1.7,1.1,3.2,2.5,4.5c1.7,1.7,3.8,2.5,6.1,2.5c2.7,0,4.7-0.7,6.1-2.2v1.1
		c0,1.7-0.5,3.1-1.5,4.1s-2.4,1.5-4.1,1.5c-0.1,0-0.1,0-0.2,0H58v3.4h4.1l0,0c0.1,0,0.1,0,0.2,0c2.8,0,5.1-0.7,6.7-2.2
		c1.7-1.5,2.5-3.5,2.5-6.2V5.7H68V7.5z M41.4,12.9c0.3-1.4,0.9-2.4,2-3.2s2.2-1.1,3.4-1.1c1.3,0,2.4,0.4,3.3,1.1
		c0.9,0.7,1.5,1.8,1.8,3.2H41.4z M66.4,17.7c-1.1,1-2.4,1.5-3.9,1.5c-1.6,0-3-0.5-4.1-1.5s-1.6-2.3-1.6-3.9s0.5-2.9,1.6-3.9
		s2.4-1.5,4.1-1.5c1.5,0,2.8,0.5,3.9,1.5s1.6,2.3,1.6,3.9S67.5,16.7,66.4,17.7z"/>
	<g>
		<path class="st1" d="M18.6,11.2L18.6,11.2c-0.7-1.8-1-2.7-2-3.5S14.4,6.5,13,6.5s-2.6,0.4-3.8,1.3C8,8.6,7.3,9.8,7,11.3l0,0h11.6
			V11.2z"/>
		<path class="st0" d="M13.3,23.5L13.3,23.5c-2.7,0-5-1-7-2.9s-2.9-4.4-2.9-7.4s1-5.5,2.9-7.5l0,0c0.1-0.6-0.2-1-0.4-1.2
			C5.5,4.2,5,4,4.5,4H0l0,0v10.4C0,21.3,5.6,27,12.6,27h8.9L20,23.5C18.6,23.5,13.3,23.5,13.3,23.5z"/>
		<path class="st1" d="M7,14.2L7,14.2c0.2,1.8,0.8,3.2,2,4.2c1.1,1,2.4,1.6,3.9,1.6h8.2c0.5,0,0.9,0,1.3,0l-2.5-5.8H7z"/>
	</g>
</g>
</svg>
